<?xml version="1.0" encoding="utf-8"?>
<!-- Generator: Adobe Illustrator 16.0.0, SVG Export Plug-In . SVG Version: 6.00 Build 0)  -->
<!DOCTYPE svg PUBLIC "-//W3C//DTD SVG 1.1//EN" "http://www.w3.org/Graphics/SVG/1.1/DTD/svg11.dtd">
<svg version="1.1" id="Calque_1" xmlns="http://www.w3.org/2000/svg" xmlns:xlink="http://www.w3.org/1999/xlink" x="0px" y="0px"
	 width="22px" height="20.32px" viewBox="0 0 22 20.32" enable-background="new 0 0 22 20.32" xml:space="preserve">
<path fill="#444444" d="M21.263,8.788c-3.391-2.854-9.547-8.171-9.607-8.225L11,0l-0.651,0.563c-0.063,0.053-6.222,5.368-9.66,8.248
	C0.25,9.205,0,9.756,0,10.32c0,1.104,0.896,2,2,2h1v6c0,1.104,0.896,2,2,2h12c1.104,0,2-0.896,2-2v-6h1c1.104,0,2-0.896,2-2
	C22,9.723,21.726,9.159,21.263,8.788z M13,18.32H9v-5h4V18.32z M17,10.32l0.002,8c-0.002,0-3.002,0-3.002,0v-6H8v6H5v-8H1.999
	C4.765,8.008,9.313,4.094,11,2.641c1.687,1.453,6.233,5.367,9,7.681C20,10.321,17,10.321,17,10.32z"/>
</svg>
