<?xml version="1.0" encoding="utf-8"?>
<!-- Generator: Adobe Illustrator 16.0.0, SVG Export Plug-In . SVG Version: 6.00 Build 0)  -->
<!DOCTYPE svg PUBLIC "-//W3C//DTD SVG 1.1//EN" "http://www.w3.org/Graphics/SVG/1.1/DTD/svg11.dtd">
<svg version="1.1" id="Calque_1" xmlns="http://www.w3.org/2000/svg" xmlns:xlink="http://www.w3.org/1999/xlink" x="0px" y="0px"
	 width="22px" height="22px" viewBox="0 0 22 22" enable-background="new 0 0 22 22" xml:space="preserve">
<path fill="#495F5E" d="M11,0.115c-6.007,0-10.875,4.869-10.875,10.875c0,6.006,4.868,10.875,10.875,10.875
	c6.006,0,10.875-4.869,10.875-10.875C21.875,4.984,17.006,0.115,11,0.115z M11,20.506c-1.337,0-2.61-0.276-3.764-0.774l4.952-5.571
	c0.11-0.125,0.173-0.284,0.173-0.451V11.67c0-0.375-0.305-0.68-0.68-0.68c-2.4,0-4.933-2.495-4.958-2.52
	c-0.127-0.127-0.3-0.199-0.48-0.199H3.524c-0.375,0-0.68,0.305-0.68,0.68v4.078c0,0.258,0.146,0.492,0.376,0.608l2.343,1.171V18.8
	c-2.466-1.721-4.078-4.576-4.078-7.81c0-1.459,0.329-2.842,0.916-4.078h2.482c0.18,0,0.354-0.072,0.48-0.199l2.719-2.719
	c0.128-0.127,0.2-0.3,0.2-0.48V1.87C9.144,1.613,10.056,1.475,11,1.475c1.495,0,2.91,0.345,4.169,0.96
	c-0.089,0.074-0.174,0.152-0.256,0.234c-0.77,0.771-1.194,1.794-1.194,2.884s0.425,2.113,1.194,2.884
	c0.774,0.774,1.811,1.195,2.881,1.195c0.067,0,0.135-0.001,0.202-0.004c0.294,1.101,0.823,3.965-0.179,7.908
	c-0.01,0.037-0.015,0.074-0.018,0.11c-1.727,1.766-4.135,2.86-6.799,2.86H11z"/>
</svg>
