<?xml version="1.0" encoding="utf-8"?>
<!-- Generator: Adobe Illustrator 16.0.0, SVG Export Plug-In . SVG Version: 6.00 Build 0)  -->
<!DOCTYPE svg PUBLIC "-//W3C//DTD SVG 1.1//EN" "http://www.w3.org/Graphics/SVG/1.1/DTD/svg11.dtd">
<svg version="1.1" id="Calque_1" xmlns="http://www.w3.org/2000/svg" xmlns:xlink="http://www.w3.org/1999/xlink" x="0px" y="0px"
	 width="23.614px" height="19.227px" viewBox="0.193 2.387 23.614 19.227" enable-background="new 0.193 2.387 23.614 19.227"
	 xml:space="preserve">
<path fill="#444444" d="M6.88,6.985c0-0.315-0.095-0.569-0.288-0.761C6.4,6.032,6.146,5.936,5.831,5.936
	c-0.331,0-0.623,0.098-0.876,0.294c-0.254,0.196-0.38,0.447-0.38,0.755c0,0.299,0.126,0.546,0.38,0.743
	C5.208,7.924,5.5,8.022,5.831,8.021c0.315,0,0.569-0.095,0.761-0.282C6.783,7.551,6.88,7.298,6.88,6.985L6.88,6.985z M15.445,12.831
	c0-0.216-0.098-0.408-0.293-0.577S14.705,12,14.398,12c-0.209,0-0.397,0.086-0.57,0.26c-0.174,0.174-0.26,0.363-0.26,0.571
	c0,0.215,0.086,0.41,0.26,0.582c0.173,0.173,0.361,0.26,0.57,0.26c0.307,0,0.559-0.084,0.754-0.254
	C15.35,13.25,15.445,13.053,15.445,12.831z M12.727,6.985c0-0.315-0.095-0.569-0.284-0.761c-0.188-0.191-0.439-0.288-0.755-0.288
	c-0.33,0-0.623,0.098-0.876,0.294c-0.254,0.196-0.38,0.447-0.38,0.755c0,0.299,0.126,0.546,0.38,0.743
	c0.253,0.196,0.546,0.294,0.876,0.293c0.315,0,0.566-0.095,0.755-0.282C12.63,7.551,12.727,7.298,12.727,6.985L12.727,6.985z
	 M20.047,12.831c0-0.216-0.1-0.408-0.301-0.577C19.548,12.085,19.297,12,18.997,12c-0.207,0-0.397,0.086-0.569,0.26
	c-0.174,0.174-0.261,0.363-0.261,0.571c0,0.215,0.087,0.41,0.261,0.582c0.172,0.173,0.362,0.26,0.569,0.26
	c0.3,0,0.549-0.084,0.749-0.254C19.947,13.25,20.047,13.053,20.047,12.831z M16.979,8.253c-0.236-0.03-0.506-0.046-0.807-0.046
	c-1.299,0-2.494,0.295-3.585,0.888c-1.091,0.592-1.951,1.394-2.577,2.404c-0.627,1.011-0.94,2.116-0.938,3.315
	c0,0.599,0.088,1.184,0.264,1.752C9.067,16.589,8.805,16.6,8.553,16.6c-0.201,0-0.392-0.004-0.576-0.018
	c-0.185-0.01-0.396-0.035-0.635-0.074c-0.237-0.039-0.409-0.064-0.513-0.081c-0.104-0.014-0.313-0.055-0.628-0.12
	c-0.316-0.064-0.507-0.105-0.577-0.121L2.707,17.65l0.83-2.515c-2.23-1.56-3.344-3.443-3.344-5.649c0-1.299,0.375-2.494,1.124-3.585
	c0.75-1.091,1.764-1.95,3.044-2.576c1.28-0.627,2.676-0.94,4.191-0.939c1.353,0,2.63,0.254,3.833,0.761
	c1.202,0.507,2.21,1.208,3.021,2.104s1.335,1.897,1.572,3.004V8.253z M23.807,14.721c0,0.899-0.264,1.758-0.791,2.576
	c-0.525,0.819-1.238,1.563-2.138,2.23l0.634,2.087l-2.294-1.257c-1.153,0.285-1.991,0.428-2.514,0.428
	c-1.3,0-2.494-0.271-3.585-0.813c-1.091-0.543-1.95-1.279-2.577-2.209s-0.939-1.945-0.939-3.043c0-1.1,0.314-2.115,0.939-3.044
	c0.625-0.93,1.484-1.666,2.577-2.208c1.092-0.542,2.287-0.813,3.585-0.813c1.235,0,2.401,0.271,3.491,0.813
	c1.094,0.542,1.967,1.281,2.625,2.214S23.807,13.629,23.807,14.721L23.807,14.721z"/>
</svg>
