<?xml version="1.0" encoding="utf-8"?>
<!-- Generator: Adobe Illustrator 16.0.0, SVG Export Plug-In . SVG Version: 6.00 Build 0)  -->
<!DOCTYPE svg PUBLIC "-//W3C//DTD SVG 1.1//EN" "http://www.w3.org/Graphics/SVG/1.1/DTD/svg11.dtd">
<svg version="1.1" id="Calque_1" xmlns="http://www.w3.org/2000/svg" xmlns:xlink="http://www.w3.org/1999/xlink" x="0px" y="0px"
	 width="23.829px" height="17.023px" viewBox="0 0 23.829 17.023" enable-background="new 0 0 23.829 17.023" xml:space="preserve">
<path fill="#444444" d="M17.021,8.51c0-0.328-0.134-0.567-0.399-0.718L9.813,3.537C9.539,3.359,9.25,3.351,8.949,3.51
	C8.656,3.67,8.511,3.917,8.511,4.255v8.51c0,0.337,0.146,0.586,0.438,0.745c0.141,0.071,0.279,0.106,0.412,0.106
	c0.176,0,0.328-0.044,0.451-0.134l6.808-4.255C16.888,9.077,17.021,8.837,17.021,8.51L17.021,8.51z M23.829,8.51
	c0,0.851-0.005,1.516-0.014,1.994c-0.01,0.479-0.046,1.084-0.113,1.815c-0.066,0.731-0.166,1.387-0.298,1.964
	c-0.144,0.646-0.449,1.191-0.918,1.635c-0.471,0.442-1.021,0.7-1.649,0.77c-1.968,0.223-4.941,0.335-8.922,0.335
	c-3.979,0-6.955-0.112-8.923-0.335c-0.628-0.069-1.18-0.327-1.655-0.77c-0.474-0.443-0.781-0.989-0.924-1.635
	c-0.123-0.577-0.219-1.232-0.286-1.964s-0.104-1.336-0.113-1.815C0.005,10.026,0,9.361,0,8.51c0-0.851,0.005-1.516,0.014-1.995
	C0.023,6.037,0.06,5.432,0.126,4.701c0.066-0.731,0.167-1.385,0.301-1.961c0.142-0.648,0.447-1.194,0.917-1.636
	C1.813,0.66,2.364,0.402,2.992,0.333C4.96,0.11,7.935,0,11.915,0c3.981,0,6.955,0.11,8.922,0.333
	c0.629,0.069,1.181,0.328,1.656,0.771c0.473,0.442,0.78,0.987,0.924,1.636c0.124,0.577,0.219,1.23,0.285,1.961
	c0.067,0.731,0.104,1.336,0.113,1.815C23.824,6.994,23.829,7.659,23.829,8.51z"/>
</svg>
