<?xml version="1.0" encoding="utf-8"?>
<!-- Generator: Adobe Illustrator 16.0.0, SVG Export Plug-In . SVG Version: 6.00 Build 0)  -->
<!DOCTYPE svg PUBLIC "-//W3C//DTD SVG 1.1//EN" "http://www.w3.org/Graphics/SVG/1.1/DTD/svg11.dtd">
<svg version="1.1" id="Calque_1" xmlns="http://www.w3.org/2000/svg" xmlns:xlink="http://www.w3.org/1999/xlink" x="0px" y="0px"
	 width="15px" height="15px" viewBox="0 0 15 15" enable-background="new 0 0 15 15" xml:space="preserve">
<path fill="#495F5E" d="M14.474,12.711l-3.538-3.01c-0.365-0.327-0.757-0.479-1.072-0.465c0.835-0.979,1.34-2.248,1.34-3.635
	C11.203,2.508,8.695,0,5.602,0C2.508,0,0,2.508,0,5.601c0,3.092,2.508,5.602,5.602,5.602c1.387,0,2.656-0.505,3.635-1.339
	c-0.015,0.314,0.137,0.707,0.466,1.072l3.009,3.538c0.516,0.572,1.357,0.621,1.871,0.108C15.095,14.069,15.047,13.227,14.474,12.711
	z M5.602,9.336c-2.063,0-3.734-1.672-3.734-3.734c0-2.063,1.672-3.735,3.734-3.735S9.336,3.54,9.336,5.602
	C9.336,7.664,7.664,9.336,5.602,9.336z"/>
</svg>
