<?xml version="1.0" encoding="utf-8"?>
<!-- Generator: Adobe Illustrator 16.0.0, SVG Export Plug-In . SVG Version: 6.00 Build 0)  -->
<!DOCTYPE svg PUBLIC "-//W3C//DTD SVG 1.1//EN" "http://www.w3.org/Graphics/SVG/1.1/DTD/svg11.dtd">
<svg version="1.1" id="Calque_1" xmlns="http://www.w3.org/2000/svg" xmlns:xlink="http://www.w3.org/1999/xlink" x="0px" y="0px"
	 width="23.882px" height="19.34px" viewBox="0 0 23.882 19.34" enable-background="new 0 0 23.882 19.34" xml:space="preserve">
<path fill="#444444" d="M8.992,14.836c0.187-0.302,0.235-0.607,0.147-0.919s-0.288-0.532-0.599-0.666
	c-0.302-0.125-0.626-0.128-0.973-0.013c-0.346,0.115-0.613,0.319-0.799,0.612c-0.197,0.302-0.253,0.606-0.174,0.912
	c0.081,0.307,0.271,0.529,0.573,0.673c0.301,0.142,0.633,0.153,0.993,0.033C8.52,15.349,8.798,15.138,8.992,14.836z M10.245,13.225
	c0.072-0.115,0.087-0.233,0.047-0.353c-0.038-0.12-0.117-0.202-0.231-0.248c-0.125-0.042-0.251-0.041-0.379,0.008
	c-0.129,0.05-0.225,0.131-0.287,0.246c-0.152,0.276-0.093,0.477,0.173,0.6c0.125,0.045,0.253,0.043,0.387-0.007
	c0.133-0.048,0.229-0.132,0.293-0.246H10.245z M12.563,14.649c-0.399,0.906-1.101,1.572-2.105,1.999
	c-1.004,0.426-1.999,0.479-2.984,0.159c-0.95-0.301-1.605-0.863-1.965-1.685c-0.359-0.822-0.331-1.656,0.086-2.499
	c0.417-0.825,1.089-1.442,2.018-1.852c0.928-0.409,1.862-0.492,2.805-0.253c0.986,0.258,1.688,0.788,2.111,1.593
	C12.953,12.915,12.962,13.761,12.563,14.649L12.563,14.649z M16.72,12.519c-0.081-0.853-0.477-1.607-1.186-2.266
	c-0.712-0.656-1.639-1.14-2.778-1.451c-1.143-0.31-2.362-0.403-3.657-0.279c-1.981,0.204-3.622,0.831-4.922,1.886
	c-1.301,1.052-1.89,2.226-1.766,3.524c0.081,0.853,0.477,1.606,1.186,2.264c0.711,0.657,1.637,1.142,2.778,1.451
	c1.142,0.311,2.361,0.405,3.657,0.279c1.982-0.202,3.621-0.83,4.922-1.885C16.254,14.989,16.844,13.815,16.72,12.519z
	 M20.823,12.572c0,0.604-0.163,1.224-0.492,1.857c-0.329,0.637-0.813,1.244-1.453,1.825c-0.639,0.583-1.387,1.104-2.244,1.565
	c-0.858,0.463-1.861,0.831-3.012,1.105c-1.148,0.276-2.351,0.414-3.603,0.414c-1.253,0-2.475-0.148-3.664-0.447
	c-1.188-0.297-2.258-0.709-3.204-1.237c-0.946-0.529-1.709-1.198-2.285-2.012C0.288,14.831,0,13.945,0,12.986
	c0-1.022,0.308-2.109,0.926-3.264C1.542,8.568,2.42,7.423,3.557,6.285c1.5-1.5,3.018-2.55,4.549-3.144
	c1.532-0.595,2.626-0.563,3.284,0.093c0.578,0.568,0.667,1.497,0.266,2.784c-0.035,0.125-0.04,0.213-0.013,0.269
	c0.027,0.053,0.072,0.083,0.133,0.091s0.127,0.006,0.193-0.007c0.066-0.013,0.126-0.028,0.18-0.046l0.08-0.026
	c1.235-0.523,2.328-0.786,3.277-0.786c0.951,0,1.63,0.271,2.04,0.813c0.399,0.56,0.399,1.35,0,2.372
	c-0.019,0.114-0.038,0.205-0.061,0.266c-0.023,0.063-0.003,0.118,0.061,0.167c0.062,0.049,0.115,0.082,0.158,0.1
	c0.045,0.018,0.119,0.045,0.229,0.08c0.505,0.16,0.962,0.369,1.37,0.626c0.407,0.258,0.764,0.619,1.065,1.086
	C20.672,11.487,20.825,12.004,20.823,12.572L20.823,12.572z M19.836,4.258c0.374,0.418,0.617,0.899,0.728,1.445
	c0.11,0.546,0.082,1.068-0.087,1.566c-0.071,0.203-0.202,0.354-0.394,0.453c-0.19,0.096-0.388,0.115-0.593,0.053
	c-0.204-0.072-0.355-0.201-0.451-0.393c-0.099-0.191-0.117-0.388-0.056-0.593c0.179-0.56,0.072-1.052-0.319-1.479
	c-0.392-0.426-0.866-0.581-1.425-0.466c-0.214,0.045-0.414,0.01-0.601-0.106c-0.186-0.115-0.296-0.28-0.333-0.493
	c-0.044-0.213-0.008-0.41,0.107-0.593c0.114-0.182,0.279-0.294,0.492-0.338c0.533-0.117,1.062-0.091,1.586,0.073
	c0.522,0.163,0.972,0.454,1.345,0.873V4.258z M22.249,2.087c0.771,0.853,1.272,1.84,1.498,2.964
	c0.229,1.124,0.169,2.196-0.179,3.217c-0.08,0.24-0.23,0.418-0.453,0.533c-0.223,0.114-0.451,0.133-0.691,0.053
	c-0.24-0.08-0.418-0.229-0.533-0.453c-0.117-0.221-0.138-0.453-0.066-0.69c0.248-0.729,0.293-1.493,0.133-2.293
	c-0.161-0.799-0.517-1.5-1.065-2.104c-0.552-0.613-1.209-1.036-1.972-1.272c-0.765-0.235-1.532-0.273-2.305-0.113
	c-0.25,0.053-0.48,0.012-0.693-0.126c-0.211-0.137-0.344-0.33-0.399-0.58c-0.054-0.249-0.011-0.478,0.126-0.687
	c0.139-0.208,0.332-0.339,0.58-0.393c1.092-0.231,2.177-0.179,3.251,0.153C20.554,0.628,21.478,1.226,22.249,2.087L22.249,2.087z"/>
</svg>
