<?xml version="1.0" encoding="utf-8"?>
<!-- Generator: Adobe Illustrator 16.0.0, SVG Export Plug-In . SVG Version: 6.00 Build 0)  -->
<!DOCTYPE svg PUBLIC "-//W3C//DTD SVG 1.1//EN" "http://www.w3.org/Graphics/SVG/1.1/DTD/svg11.dtd">
<svg version="1.1" id="Calque_1" xmlns="http://www.w3.org/2000/svg" xmlns:xlink="http://www.w3.org/1999/xlink" x="0px" y="0px"
	 width="13px" height="17px" viewBox="0 0 13 17" enable-background="new 0 0 13 17" xml:space="preserve">
<path fill="#495F5E" d="M11.357,5.678h-0.812V4.056C10.546,1.817,8.729,0,6.49,0S2.434,1.817,2.434,4.056v1.622H1.623
	C0.727,5.678,0,6.404,0,7.301v8.113c0,0.896,0.727,1.621,1.623,1.621h9.735c0.896,0,1.622-0.725,1.622-1.621V7.301
	C12.979,6.404,12.254,5.678,11.357,5.678z M6.49,1.542c1.388,0,2.516,1.128,2.516,2.515v1.622h-4.95V4.056H3.975
	C3.975,2.67,5.104,1.542,6.49,1.542z M11.357,15.414H1.623V7.301h9.735V15.414z M6.49,12.98c0.897,0,1.623-0.727,1.623-1.623
	S7.387,9.734,6.49,9.734c-0.895,0-1.623,0.727-1.623,1.623S5.595,12.98,6.49,12.98z"/>
</svg>
