<?xml version="1.0" encoding="utf-8"?>
<!-- Generator: Adobe Illustrator 16.0.0, SVG Export Plug-In . SVG Version: 6.00 Build 0)  -->
<!DOCTYPE svg PUBLIC "-//W3C//DTD SVG 1.1//EN" "http://www.w3.org/Graphics/SVG/1.1/DTD/svg11.dtd">
<svg version="1.1" id="Calque_1" xmlns="http://www.w3.org/2000/svg" xmlns:xlink="http://www.w3.org/1999/xlink" x="0px" y="0px"
	 width="23.753px" height="19.29px" viewBox="0 0 23.753 19.29" enable-background="new 0 0 23.753 19.29" xml:space="preserve">
<path fill="#444444" d="M23.753,2.289c-0.674,0.985-1.486,1.824-2.441,2.517c0.01,0.141,0.015,0.352,0.015,0.633
	c0,1.306-0.189,2.609-0.572,3.911c-0.383,1.302-0.963,2.551-1.741,3.746c-0.777,1.196-1.705,2.253-2.78,3.173
	c-1.076,0.919-2.372,1.651-3.889,2.2c-1.517,0.546-3.141,0.821-4.868,0.821c-2.722,0-5.215-0.729-7.476-2.186
	c0.353,0.04,0.744,0.061,1.176,0.061c2.261,0,4.276-0.693,6.043-2.08c-1.055-0.019-1.999-0.343-2.833-0.972
	c-0.834-0.628-1.407-1.431-1.718-2.404C3,11.76,3.306,11.784,3.587,11.784c0.432,0,0.859-0.055,1.281-0.166
	c-1.125-0.229-2.057-0.791-2.796-1.681C1.334,9.049,0.964,8.016,0.964,6.841V6.78c0.684,0.383,1.417,0.588,2.201,0.618
	c-0.663-0.443-1.19-1.02-1.583-1.733C1.19,4.953,0.995,4.179,0.995,3.344c0-0.884,0.223-1.703,0.665-2.457
	c1.215,1.498,2.694,2.696,4.439,3.595c1.743,0.9,3.609,1.4,5.599,1.501c-0.081-0.382-0.121-0.753-0.121-1.115
	c0-1.347,0.475-2.494,1.424-3.444C13.951,0.475,15.1,0,16.445,0c1.407,0,2.592,0.512,3.557,1.537
	c1.095-0.211,2.125-0.603,3.09-1.175c-0.373,1.155-1.085,2.05-2.14,2.683c0.932-0.102,1.866-0.352,2.801-0.753V2.289z"/>
</svg>
