<?xml version="1.0" encoding="utf-8"?>
<!-- Generator: Adobe Illustrator 16.0.0, SVG Export Plug-In . SVG Version: 6.00 Build 0)  -->
<!DOCTYPE svg PUBLIC "-//W3C//DTD SVG 1.1//EN" "http://www.w3.org/Graphics/SVG/1.1/DTD/svg11.dtd">
<svg version="1.1" id="Calque_1" xmlns="http://www.w3.org/2000/svg" xmlns:xlink="http://www.w3.org/1999/xlink" x="0px" y="0px"
	 width="23.655px" height="23.635px" viewBox="0 0 23.655 23.635" enable-background="new 0 0 23.655 23.635" xml:space="preserve">
<g>
	<path fill="#444444" d="M11.248,0.014c-3.008,0.15-5.81,1.417-7.906,3.575c-2.52,2.592-3.703,6.146-3.244,9.74
		c0.402,3.151,2.059,5.993,4.627,7.938c2.855,2.161,6.623,2.899,10.118,1.981c2.364-0.621,4.496-1.979,6.07-3.869
		c2.981-3.575,3.587-8.556,1.549-12.739c-0.591-1.214-1.296-2.196-2.278-3.176c-1-0.998-1.953-1.677-3.201-2.282
		c-0.525-0.254-0.877-0.398-1.417-0.579C14.213,0.15,12.689-0.058,11.248,0.014L11.248,0.014z M12.906,3.693
		c0.9,0.129,1.694,0.368,2.467,0.741c1.026,0.497,1.882,1.14,2.597,1.953c1.125,1.28,1.781,2.738,2.009,4.454
		c0.058,0.44,0.058,1.518,0,1.954c-0.131,0.989-0.367,1.78-0.787,2.634c-0.597,1.209-1.382,2.151-2.483,2.977
		c-2.437,1.827-5.792,2.124-8.527,0.756c-0.849-0.427-1.508-0.901-2.172-1.57c-2.892-2.906-3.188-7.483-0.697-10.747
		c0.724-0.95,1.68-1.747,2.761-2.306c0.896-0.463,1.847-0.75,2.868-0.867C11.339,3.624,12.527,3.638,12.906,3.693L12.906,3.693z"/>
	<path fill="#444444" d="M8.664,6.791C8.582,6.821,8.499,6.897,8.463,6.973c-0.023,0.05-0.051,0.242-0.075,0.515
		c-0.195,2.274-0.222,5.031-0.073,7.542c0.07,1.171,0.104,1.519,0.159,1.618c0.063,0.11,0.201,0.192,0.324,0.192
		c0.241,0,2.892-1.303,4.611-2.266c1.211-0.679,2.846-1.701,3.817-2.39c0.189-0.135,0.25-0.229,0.25-0.392
		c0-0.158-0.061-0.232-0.39-0.486c-2.218-1.702-4.798-3.156-7.659-4.318C8.913,6.779,8.785,6.746,8.664,6.791L8.664,6.791z"/>
</g>
</svg>
