<?xml version="1.0" encoding="utf-8"?>
<!-- Generator: Adobe Illustrator 16.0.0, SVG Export Plug-In . SVG Version: 6.00 Build 0)  -->
<!DOCTYPE svg PUBLIC "-//W3C//DTD SVG 1.1//EN" "http://www.w3.org/Graphics/SVG/1.1/DTD/svg11.dtd">
<svg version="1.1" id="Calque_1" xmlns="http://www.w3.org/2000/svg" xmlns:xlink="http://www.w3.org/1999/xlink" x="0px" y="0px"
	 width="28px" height="24px" viewBox="0 0 28 24" enable-background="new 0 0 28 24" xml:space="preserve">
<path fill="#444444" d="M17.414,23.414l10-10c0.781-0.781,0.781-2.047,0-2.828l-10-10c-0.781-0.781-2.047-0.781-2.828,0
	c-0.781,0.781-0.781,2.047,0,2.828L21.172,10H2c-1.105,0-2,0.895-2,2s0.895,2,2,2h19.172l-6.586,6.586
	C14.196,20.976,14,21.488,14,22s0.195,1.023,0.586,1.414C15.367,24.195,16.633,24.195,17.414,23.414z"/>
</svg>
