<?xml version="1.0" encoding="UTF-8"?><!DOCTYPE svg PUBLIC "-//W3C//DTD SVG 1.1//EN" "http://www.w3.org/Graphics/SVG/1.1/DTD/svg11.dtd"><svg xmlns="http://www.w3.org/2000/svg" xmlns:xlink="http://www.w3.org/1999/xlink"><symbol id="icon-arrowNext" viewBox="0 0 11.645 18.269">
<polygon points="0,15.759 2.51,18.269 11.645,9.135 2.51,0 0,2.51 6.625,9.135 "/>
</symbol><symbol id="icon-arrowPrev" viewBox="0 0 11.645 18.269">
<polygon points="11.645,2.51 9.135,0 0,9.134 9.135,18.269 11.645,15.759 5.02,9.134 "/>
</symbol><symbol id="icon-facebook" viewBox="0 0 24 24">
<path d="M18.088,0.559v3.72h-2.213c-0.808,0-1.353,0.169-1.634,0.507c-0.282,0.337-0.423,0.844-0.423,1.521v2.664
	h4.129l-0.55,4.171h-3.579v10.696H9.505V13.142H5.912V8.971h3.593V5.898c0-1.746,0.488-3.102,1.466-4.066
	c0.976-0.961,2.278-1.444,3.904-1.444c1.381,0,2.452,0.056,3.213,0.169V0.559z"/>
</symbol><symbol id="icon-language" viewBox="0 0 22 22">
<path d="M11,0.115c-6.007,0-10.875,4.869-10.875,10.875c0,6.006,4.868,10.875,10.875,10.875
	c6.006,0,10.875-4.869,10.875-10.875C21.875,4.984,17.006,0.115,11,0.115z M11,20.506c-1.337,0-2.61-0.276-3.764-0.774l4.952-5.571
	c0.11-0.125,0.173-0.284,0.173-0.451V11.67c0-0.375-0.305-0.68-0.68-0.68c-2.4,0-4.933-2.495-4.958-2.52
	c-0.127-0.127-0.3-0.199-0.48-0.199H3.524c-0.375,0-0.68,0.305-0.68,0.68v4.078c0,0.258,0.146,0.492,0.376,0.608l2.343,1.171V18.8
	c-2.466-1.721-4.078-4.576-4.078-7.81c0-1.459,0.329-2.842,0.916-4.078h2.482c0.18,0,0.354-0.072,0.48-0.199l2.719-2.719
	c0.128-0.127,0.2-0.3,0.2-0.48V1.87C9.144,1.613,10.056,1.475,11,1.475c1.495,0,2.91,0.345,4.169,0.96
	c-0.089,0.074-0.174,0.152-0.256,0.234c-0.77,0.771-1.194,1.794-1.194,2.884s0.425,2.113,1.194,2.884
	c0.774,0.774,1.811,1.195,2.881,1.195c0.067,0,0.135-0.001,0.202-0.004c0.294,1.101,0.823,3.965-0.179,7.908
	c-0.01,0.037-0.015,0.074-0.018,0.11c-1.727,1.766-4.135,2.86-6.799,2.86H11z"/>
</symbol><symbol id="icon-login" viewBox="0 0 13 17">
<path d="M11.357,5.678h-0.812V4.056C10.546,1.817,8.729,0,6.49,0S2.434,1.817,2.434,4.056v1.622H1.623
	C0.727,5.678,0,6.404,0,7.301v8.113c0,0.896,0.727,1.621,1.623,1.621h9.735c0.896,0,1.622-0.725,1.622-1.621V7.301
	C12.979,6.404,12.254,5.678,11.357,5.678z M6.49,1.542c1.388,0,2.516,1.128,2.516,2.515v1.622h-4.95V4.056H3.975
	C3.975,2.67,5.104,1.542,6.49,1.542z M11.357,15.414H1.623V7.301h9.735V15.414z M6.49,12.98c0.897,0,1.623-0.727,1.623-1.623
	S7.387,9.734,6.49,9.734c-0.895,0-1.623,0.727-1.623,1.623S5.595,12.98,6.49,12.98z"/>
</symbol><symbol id="icon-search" viewBox="0 0 15 15">
<path d="M14.474,12.711l-3.538-3.01c-0.365-0.327-0.757-0.479-1.072-0.465c0.835-0.979,1.34-2.248,1.34-3.635
	C11.203,2.508,8.695,0,5.602,0C2.508,0,0,2.508,0,5.601c0,3.092,2.508,5.602,5.602,5.602c1.387,0,2.656-0.505,3.635-1.339
	c-0.015,0.314,0.137,0.707,0.466,1.072l3.009,3.538c0.516,0.572,1.357,0.621,1.871,0.108C15.095,14.069,15.047,13.227,14.474,12.711
	z M5.602,9.336c-2.063,0-3.734-1.672-3.734-3.734c0-2.063,1.672-3.735,3.734-3.735S9.336,3.54,9.336,5.602
	C9.336,7.664,7.664,9.336,5.602,9.336z"/>
</symbol><symbol id="icon-twitter" viewBox="0 0 23.753 19.29">
<path d="M23.753,2.289c-0.674,0.985-1.486,1.824-2.441,2.517c0.01,0.141,0.015,0.352,0.015,0.633
	c0,1.306-0.189,2.609-0.572,3.911c-0.383,1.302-0.963,2.551-1.741,3.746c-0.777,1.196-1.705,2.253-2.78,3.173
	c-1.076,0.919-2.372,1.651-3.889,2.2c-1.517,0.546-3.141,0.821-4.868,0.821c-2.722,0-5.215-0.729-7.476-2.186
	c0.353,0.04,0.744,0.061,1.176,0.061c2.261,0,4.276-0.693,6.043-2.08c-1.055-0.019-1.999-0.343-2.833-0.972
	c-0.834-0.628-1.407-1.431-1.718-2.404C3,11.76,3.306,11.784,3.587,11.784c0.432,0,0.859-0.055,1.281-0.166
	c-1.125-0.229-2.057-0.791-2.796-1.681C1.334,9.049,0.964,8.016,0.964,6.841V6.78c0.684,0.383,1.417,0.588,2.201,0.618
	c-0.663-0.443-1.19-1.02-1.583-1.733C1.19,4.953,0.995,4.179,0.995,3.344c0-0.884,0.223-1.703,0.665-2.457
	c1.215,1.498,2.694,2.696,4.439,3.595c1.743,0.9,3.609,1.4,5.599,1.501c-0.081-0.382-0.121-0.753-0.121-1.115
	c0-1.347,0.475-2.494,1.424-3.444C13.951,0.475,15.1,0,16.445,0c1.407,0,2.592,0.512,3.557,1.537
	c1.095-0.211,2.125-0.603,3.09-1.175c-0.373,1.155-1.085,2.05-2.14,2.683c0.932-0.102,1.866-0.352,2.801-0.753V2.289z"/>
</symbol><symbol id="icon-wechat" viewBox="0.193 2.387 23.614 19.227">
<path d="M6.88,6.985c0-0.315-0.095-0.569-0.288-0.761C6.4,6.032,6.146,5.936,5.831,5.936
	c-0.331,0-0.623,0.098-0.876,0.294c-0.254,0.196-0.38,0.447-0.38,0.755c0,0.299,0.126,0.546,0.38,0.743
	C5.208,7.924,5.5,8.022,5.831,8.021c0.315,0,0.569-0.095,0.761-0.282C6.783,7.551,6.88,7.298,6.88,6.985L6.88,6.985z M15.445,12.831
	c0-0.216-0.098-0.408-0.293-0.577S14.705,12,14.398,12c-0.209,0-0.397,0.086-0.57,0.26c-0.174,0.174-0.26,0.363-0.26,0.571
	c0,0.215,0.086,0.41,0.26,0.582c0.173,0.173,0.361,0.26,0.57,0.26c0.307,0,0.559-0.084,0.754-0.254
	C15.35,13.25,15.445,13.053,15.445,12.831z M12.727,6.985c0-0.315-0.095-0.569-0.284-0.761c-0.188-0.191-0.439-0.288-0.755-0.288
	c-0.33,0-0.623,0.098-0.876,0.294c-0.254,0.196-0.38,0.447-0.38,0.755c0,0.299,0.126,0.546,0.38,0.743
	c0.253,0.196,0.546,0.294,0.876,0.293c0.315,0,0.566-0.095,0.755-0.282C12.63,7.551,12.727,7.298,12.727,6.985L12.727,6.985z
	 M20.047,12.831c0-0.216-0.1-0.408-0.301-0.577C19.548,12.085,19.297,12,18.997,12c-0.207,0-0.397,0.086-0.569,0.26
	c-0.174,0.174-0.261,0.363-0.261,0.571c0,0.215,0.087,0.41,0.261,0.582c0.172,0.173,0.362,0.26,0.569,0.26
	c0.3,0,0.549-0.084,0.749-0.254C19.947,13.25,20.047,13.053,20.047,12.831z M16.979,8.253c-0.236-0.03-0.506-0.046-0.807-0.046
	c-1.299,0-2.494,0.295-3.585,0.888c-1.091,0.592-1.951,1.394-2.577,2.404c-0.627,1.011-0.94,2.116-0.938,3.315
	c0,0.599,0.088,1.184,0.264,1.752C9.067,16.589,8.805,16.6,8.553,16.6c-0.201,0-0.392-0.004-0.576-0.018
	c-0.185-0.01-0.396-0.035-0.635-0.074c-0.237-0.039-0.409-0.064-0.513-0.081c-0.104-0.014-0.313-0.055-0.628-0.12
	c-0.316-0.064-0.507-0.105-0.577-0.121L2.707,17.65l0.83-2.515c-2.23-1.56-3.344-3.443-3.344-5.649c0-1.299,0.375-2.494,1.124-3.585
	c0.75-1.091,1.764-1.95,3.044-2.576c1.28-0.627,2.676-0.94,4.191-0.939c1.353,0,2.63,0.254,3.833,0.761
	c1.202,0.507,2.21,1.208,3.021,2.104s1.335,1.897,1.572,3.004V8.253z M23.807,14.721c0,0.899-0.264,1.758-0.791,2.576
	c-0.525,0.819-1.238,1.563-2.138,2.23l0.634,2.087l-2.294-1.257c-1.153,0.285-1.991,0.428-2.514,0.428
	c-1.3,0-2.494-0.271-3.585-0.813c-1.091-0.543-1.95-1.279-2.577-2.209s-0.939-1.945-0.939-3.043c0-1.1,0.314-2.115,0.939-3.044
	c0.625-0.93,1.484-1.666,2.577-2.208c1.092-0.542,2.287-0.813,3.585-0.813c1.235,0,2.401,0.271,3.491,0.813
	c1.094,0.542,1.967,1.281,2.625,2.214S23.807,13.629,23.807,14.721L23.807,14.721z"/>
</symbol><symbol id="icon-weibo" viewBox="0 0 23.882 19.34">
<path d="M8.992,14.836c0.187-0.302,0.235-0.607,0.147-0.919s-0.288-0.532-0.599-0.666
	c-0.302-0.125-0.626-0.128-0.973-0.013c-0.346,0.115-0.613,0.319-0.799,0.612c-0.197,0.302-0.253,0.606-0.174,0.912
	c0.081,0.307,0.271,0.529,0.573,0.673c0.301,0.142,0.633,0.153,0.993,0.033C8.52,15.349,8.798,15.138,8.992,14.836z M10.245,13.225
	c0.072-0.115,0.087-0.233,0.047-0.353c-0.038-0.12-0.117-0.202-0.231-0.248c-0.125-0.042-0.251-0.041-0.379,0.008
	c-0.129,0.05-0.225,0.131-0.287,0.246c-0.152,0.276-0.093,0.477,0.173,0.6c0.125,0.045,0.253,0.043,0.387-0.007
	c0.133-0.048,0.229-0.132,0.293-0.246H10.245z M12.563,14.649c-0.399,0.906-1.101,1.572-2.105,1.999
	c-1.004,0.426-1.999,0.479-2.984,0.159c-0.95-0.301-1.605-0.863-1.965-1.685c-0.359-0.822-0.331-1.656,0.086-2.499
	c0.417-0.825,1.089-1.442,2.018-1.852c0.928-0.409,1.862-0.492,2.805-0.253c0.986,0.258,1.688,0.788,2.111,1.593
	C12.953,12.915,12.962,13.761,12.563,14.649L12.563,14.649z M16.72,12.519c-0.081-0.853-0.477-1.607-1.186-2.266
	c-0.712-0.656-1.639-1.14-2.778-1.451c-1.143-0.31-2.362-0.403-3.657-0.279c-1.981,0.204-3.622,0.831-4.922,1.886
	c-1.301,1.052-1.89,2.226-1.766,3.524c0.081,0.853,0.477,1.606,1.186,2.264c0.711,0.657,1.637,1.142,2.778,1.451
	c1.142,0.311,2.361,0.405,3.657,0.279c1.982-0.202,3.621-0.83,4.922-1.885C16.254,14.989,16.844,13.815,16.72,12.519z
	 M20.823,12.572c0,0.604-0.163,1.224-0.492,1.857c-0.329,0.637-0.813,1.244-1.453,1.825c-0.639,0.583-1.387,1.104-2.244,1.565
	c-0.858,0.463-1.861,0.831-3.012,1.105c-1.148,0.276-2.351,0.414-3.603,0.414c-1.253,0-2.475-0.148-3.664-0.447
	c-1.188-0.297-2.258-0.709-3.204-1.237c-0.946-0.529-1.709-1.198-2.285-2.012C0.288,14.831,0,13.945,0,12.986
	c0-1.022,0.308-2.109,0.926-3.264C1.542,8.568,2.42,7.423,3.557,6.285c1.5-1.5,3.018-2.55,4.549-3.144
	c1.532-0.595,2.626-0.563,3.284,0.093c0.578,0.568,0.667,1.497,0.266,2.784c-0.035,0.125-0.04,0.213-0.013,0.269
	c0.027,0.053,0.072,0.083,0.133,0.091s0.127,0.006,0.193-0.007c0.066-0.013,0.126-0.028,0.18-0.046l0.08-0.026
	c1.235-0.523,2.328-0.786,3.277-0.786c0.951,0,1.63,0.271,2.04,0.813c0.399,0.56,0.399,1.35,0,2.372
	c-0.019,0.114-0.038,0.205-0.061,0.266c-0.023,0.063-0.003,0.118,0.061,0.167c0.062,0.049,0.115,0.082,0.158,0.1
	c0.045,0.018,0.119,0.045,0.229,0.08c0.505,0.16,0.962,0.369,1.37,0.626c0.407,0.258,0.764,0.619,1.065,1.086
	C20.672,11.487,20.825,12.004,20.823,12.572L20.823,12.572z M19.836,4.258c0.374,0.418,0.617,0.899,0.728,1.445
	c0.11,0.546,0.082,1.068-0.087,1.566c-0.071,0.203-0.202,0.354-0.394,0.453c-0.19,0.096-0.388,0.115-0.593,0.053
	c-0.204-0.072-0.355-0.201-0.451-0.393c-0.099-0.191-0.117-0.388-0.056-0.593c0.179-0.56,0.072-1.052-0.319-1.479
	c-0.392-0.426-0.866-0.581-1.425-0.466c-0.214,0.045-0.414,0.01-0.601-0.106c-0.186-0.115-0.296-0.28-0.333-0.493
	c-0.044-0.213-0.008-0.41,0.107-0.593c0.114-0.182,0.279-0.294,0.492-0.338c0.533-0.117,1.062-0.091,1.586,0.073
	c0.522,0.163,0.972,0.454,1.345,0.873V4.258z M22.249,2.087c0.771,0.853,1.272,1.84,1.498,2.964
	c0.229,1.124,0.169,2.196-0.179,3.217c-0.08,0.24-0.23,0.418-0.453,0.533c-0.223,0.114-0.451,0.133-0.691,0.053
	c-0.24-0.08-0.418-0.229-0.533-0.453c-0.117-0.221-0.138-0.453-0.066-0.69c0.248-0.729,0.293-1.493,0.133-2.293
	c-0.161-0.799-0.517-1.5-1.065-2.104c-0.552-0.613-1.209-1.036-1.972-1.272c-0.765-0.235-1.532-0.273-2.305-0.113
	c-0.25,0.053-0.48,0.012-0.693-0.126c-0.211-0.137-0.344-0.33-0.399-0.58c-0.054-0.249-0.011-0.478,0.126-0.687
	c0.139-0.208,0.332-0.339,0.58-0.393c1.092-0.231,2.177-0.179,3.251,0.153C20.554,0.628,21.478,1.226,22.249,2.087L22.249,2.087z"/>
</symbol><symbol id="icon-youku" viewBox="0 0 23.655 23.635">
<g>
	<path d="M11.248,0.014c-3.008,0.15-5.81,1.417-7.906,3.575c-2.52,2.592-3.703,6.146-3.244,9.74
		c0.402,3.151,2.059,5.993,4.627,7.938c2.855,2.161,6.623,2.899,10.118,1.981c2.364-0.621,4.496-1.979,6.07-3.869
		c2.981-3.575,3.587-8.556,1.549-12.739c-0.591-1.214-1.296-2.196-2.278-3.176c-1-0.998-1.953-1.677-3.201-2.282
		c-0.525-0.254-0.877-0.398-1.417-0.579C14.213,0.15,12.689-0.058,11.248,0.014L11.248,0.014z M12.906,3.693
		c0.9,0.129,1.694,0.368,2.467,0.741c1.026,0.497,1.882,1.14,2.597,1.953c1.125,1.28,1.781,2.738,2.009,4.454
		c0.058,0.44,0.058,1.518,0,1.954c-0.131,0.989-0.367,1.78-0.787,2.634c-0.597,1.209-1.382,2.151-2.483,2.977
		c-2.437,1.827-5.792,2.124-8.527,0.756c-0.849-0.427-1.508-0.901-2.172-1.57c-2.892-2.906-3.188-7.483-0.697-10.747
		c0.724-0.95,1.68-1.747,2.761-2.306c0.896-0.463,1.847-0.75,2.868-0.867C11.339,3.624,12.527,3.638,12.906,3.693L12.906,3.693z"/>
	<path d="M8.664,6.791C8.582,6.821,8.499,6.897,8.463,6.973c-0.023,0.05-0.051,0.242-0.075,0.515
		c-0.195,2.274-0.222,5.031-0.073,7.542c0.07,1.171,0.104,1.519,0.159,1.618c0.063,0.11,0.201,0.192,0.324,0.192
		c0.241,0,2.892-1.303,4.611-2.266c1.211-0.679,2.846-1.701,3.817-2.39c0.189-0.135,0.25-0.229,0.25-0.392
		c0-0.158-0.061-0.232-0.39-0.486c-2.218-1.702-4.798-3.156-7.659-4.318C8.913,6.779,8.785,6.746,8.664,6.791L8.664,6.791z"/>
</g>
</symbol><symbol id="icon-youtube" viewBox="0 0 23.829 17.023">
<path d="M17.021,8.51c0-0.328-0.134-0.567-0.399-0.718L9.813,3.537C9.539,3.359,9.25,3.351,8.949,3.51
	C8.656,3.67,8.511,3.917,8.511,4.255v8.51c0,0.337,0.146,0.586,0.438,0.745c0.141,0.071,0.279,0.106,0.412,0.106
	c0.176,0,0.328-0.044,0.451-0.134l6.808-4.255C16.888,9.077,17.021,8.837,17.021,8.51L17.021,8.51z M23.829,8.51
	c0,0.851-0.005,1.516-0.014,1.994c-0.01,0.479-0.046,1.084-0.113,1.815c-0.066,0.731-0.166,1.387-0.298,1.964
	c-0.144,0.646-0.449,1.191-0.918,1.635c-0.471,0.442-1.021,0.7-1.649,0.77c-1.968,0.223-4.941,0.335-8.922,0.335
	c-3.979,0-6.955-0.112-8.923-0.335c-0.628-0.069-1.18-0.327-1.655-0.77c-0.474-0.443-0.781-0.989-0.924-1.635
	c-0.123-0.577-0.219-1.232-0.286-1.964s-0.104-1.336-0.113-1.815C0.005,10.026,0,9.361,0,8.51c0-0.851,0.005-1.516,0.014-1.995
	C0.023,6.037,0.06,5.432,0.126,4.701c0.066-0.731,0.167-1.385,0.301-1.961c0.142-0.648,0.447-1.194,0.917-1.636
	C1.813,0.66,2.364,0.402,2.992,0.333C4.96,0.11,7.935,0,11.915,0c3.981,0,6.955,0.11,8.922,0.333
	c0.629,0.069,1.181,0.328,1.656,0.771c0.473,0.442,0.78,0.987,0.924,1.636c0.124,0.577,0.219,1.23,0.285,1.961
	c0.067,0.731,0.104,1.336,0.113,1.815C23.824,6.994,23.829,7.659,23.829,8.51z"/>
</symbol></svg>