<?xml version="1.0" encoding="UTF-8"?><!DOCTYPE svg PUBLIC "-//W3C//DTD SVG 1.1//EN" "http://www.w3.org/Graphics/SVG/1.1/DTD/svg11.dtd"><svg xmlns="http://www.w3.org/2000/svg"><symbol id="icon-arrowNext" viewBox="0 0 11.645 18.269"><path d="M0 15.759l2.51 2.51 9.135-9.134L2.51 0 0 2.51l6.625 6.625z"/></symbol><symbol id="icon-arrowPrev" viewBox="0 0 11.645 18.269"><path d="M11.645 2.51L9.135 0 0 9.134l9.135 9.135 2.51-2.51L5.02 9.134z"/></symbol><symbol id="icon-facebook" viewBox="0 0 24 24"><path d="M18.088.559v3.72h-2.213c-.808 0-1.353.169-1.634.507-.282.337-.423.844-.423 1.521v2.664h4.129l-.55 4.171h-3.579v10.696H9.505V13.142H5.912V8.971h3.593V5.898c0-1.746.488-3.102 1.466-4.066.976-.961 2.278-1.444 3.904-1.444 1.381 0 2.452.056 3.213.169v.002z"/></symbol><symbol id="icon-language" viewBox="0 0 22 22"><path d="M11 .115C4.993.115.125 4.984.125 10.99S4.993 21.865 11 21.865c6.006 0 10.875-4.869 10.875-10.875S17.006.115 11 .115zm0 20.391a9.478 9.478 0 0 1-3.764-.774l4.952-5.571a.683.683 0 0 0 .173-.451v-2.04a.68.68 0 0 0-.68-.68c-2.4 0-4.933-2.495-4.958-2.52a.68.68 0 0 0-.48-.199H3.524a.68.68 0 0 0-.68.68v4.078a.68.68 0 0 0 .376.608l2.343 1.171V18.8a9.504 9.504 0 0 1-4.078-7.81c0-1.459.329-2.842.916-4.078h2.482c.18 0 .354-.072.48-.199l2.719-2.719c.128-.127.2-.3.2-.48V1.87A9.497 9.497 0 0 1 11 1.475c1.495 0 2.91.345 4.169.96a4.053 4.053 0 0 0-1.45 3.118c0 1.09.425 2.113 1.194 2.884a4.07 4.07 0 0 0 3.083 1.191c.294 1.101.823 3.965-.179 7.908a.615.615 0 0 0-.018.11A9.479 9.479 0 0 1 11 20.506z"/></symbol><symbol id="icon-login" viewBox="0 0 13 17"><path d="M11.357 5.678h-.812V4.056a4.056 4.056 0 1 0-8.111 0v1.622h-.811C.727 5.678 0 6.404 0 7.301v8.113c0 .896.727 1.621 1.623 1.621h9.735a1.62 1.62 0 0 0 1.622-1.621V7.301a1.623 1.623 0 0 0-1.623-1.623zM6.49 1.542a2.518 2.518 0 0 1 2.516 2.515v1.622h-4.95V4.056h-.081A2.518 2.518 0 0 1 6.49 1.542zm4.867 13.872H1.623V7.301h9.735v8.113zM6.49 12.98a1.623 1.623 0 1 0 0-3.246 1.623 1.623 0 0 0 0 3.246z"/></symbol><symbol id="icon-search" viewBox="0 0 15 15"><path d="M14.474 12.711l-3.538-3.01c-.365-.327-.757-.479-1.072-.465A5.603 5.603 0 1 0 0 5.601a5.603 5.603 0 0 0 9.237 4.263c-.015.314.137.707.466 1.072l3.009 3.538c.516.572 1.357.621 1.871.108.512-.513.464-1.355-.109-1.871zM5.602 9.336a3.734 3.734 0 1 1 0-7.467 3.734 3.734 0 0 1 0 7.467z"/></symbol><symbol id="icon-twitter" viewBox="0 0 23.753 19.29"><path d="M23.753 2.289a10.194 10.194 0 0 1-2.441 2.517 13.79 13.79 0 0 1-.557 4.544 14.177 14.177 0 0 1-1.741 3.746 14.686 14.686 0 0 1-2.78 3.173c-1.076.919-2.372 1.651-3.889 2.2-1.517.546-3.141.821-4.868.821-2.722 0-5.215-.729-7.476-2.186.353.04.744.061 1.176.061 2.261 0 4.276-.693 6.043-2.08a4.731 4.731 0 0 1-2.833-.972 4.765 4.765 0 0 1-1.718-2.404c.331.051.637.075.918.075.432 0 .859-.055 1.281-.166a4.779 4.779 0 0 1-2.796-1.681C1.334 9.049.964 8.016.964 6.841V6.78a4.817 4.817 0 0 0 2.201.618 4.886 4.886 0 0 1-1.583-1.733 4.734 4.734 0 0 1-.587-2.321c0-.884.223-1.703.665-2.457a13.761 13.761 0 0 0 4.439 3.595c1.743.9 3.609 1.4 5.599 1.501a5.363 5.363 0 0 1-.121-1.115c0-1.347.475-2.494 1.424-3.444C13.951.475 15.1 0 16.445 0c1.407 0 2.592.512 3.557 1.537a9.568 9.568 0 0 0 3.09-1.175c-.373 1.155-1.085 2.05-2.14 2.683a9.788 9.788 0 0 0 2.801-.753v-.003z"/></symbol><symbol id="icon-wechat" viewBox="0.193 2.387 23.614 19.227"><path d="M6.88 6.985c0-.315-.095-.569-.288-.761-.192-.192-.446-.288-.761-.288a1.39 1.39 0 0 0-.876.294.91.91 0 0 0-.38.755c0 .299.126.546.38.743.253.196.545.294.876.293.315 0 .569-.095.761-.282.191-.188.288-.441.288-.754zm8.565 5.846c0-.216-.098-.408-.293-.577S14.705 12 14.398 12c-.209 0-.397.086-.57.26-.174.174-.26.363-.26.571a.8.8 0 0 0 .26.582c.173.173.361.26.57.26.307 0 .559-.084.754-.254.198-.169.293-.366.293-.588zm-2.718-5.846c0-.315-.095-.569-.284-.761-.188-.191-.439-.288-.755-.288-.33 0-.623.098-.876.294a.91.91 0 0 0-.38.755c0 .299.126.546.38.743.253.196.546.294.876.293.315 0 .566-.095.755-.282.187-.188.284-.441.284-.754zm7.32 5.846c0-.216-.1-.408-.301-.577-.198-.169-.449-.254-.749-.254-.207 0-.397.086-.569.26-.174.174-.261.363-.261.571 0 .215.087.41.261.582.172.173.362.26.569.26.3 0 .549-.084.749-.254.201-.169.301-.366.301-.588zm-3.068-4.578a6.456 6.456 0 0 0-.807-.046c-1.299 0-2.494.295-3.585.888-1.091.592-1.951 1.394-2.577 2.404a6.15 6.15 0 0 0-.938 3.315c0 .599.088 1.184.264 1.752a9.207 9.207 0 0 1-1.359.016 6.017 6.017 0 0 1-.635-.074c-.237-.039-.409-.064-.513-.081a12.15 12.15 0 0 1-.628-.12 29.644 29.644 0 0 1-.577-.121L2.707 17.65l.83-2.515C1.307 13.575.193 11.692.193 9.486c0-1.299.375-2.494 1.124-3.585.75-1.091 1.764-1.95 3.044-2.576 1.28-.627 2.676-.94 4.191-.939 1.353 0 2.63.254 3.833.761 1.202.507 2.21 1.208 3.021 2.104s1.335 1.897 1.572 3.004v-.002zm6.828 6.468c0 .899-.264 1.758-.791 2.576-.525.819-1.238 1.563-2.138 2.23l.634 2.087-2.294-1.257c-1.153.285-1.991.428-2.514.428-1.3 0-2.494-.271-3.585-.813-1.091-.543-1.95-1.279-2.577-2.209s-.939-1.945-.939-3.043c0-1.1.314-2.115.939-3.044.625-.93 1.484-1.666 2.577-2.208 1.092-.542 2.287-.813 3.585-.813 1.235 0 2.401.271 3.491.813 1.094.542 1.967 1.281 2.625 2.214s.987 1.947.987 3.039z"/></symbol><symbol id="icon-weibo" viewBox="0 0 23.882 19.34"><path d="M8.992 14.836c.187-.302.235-.607.147-.919s-.288-.532-.599-.666c-.302-.125-.626-.128-.973-.013a1.46 1.46 0 0 0-.799.612c-.197.302-.253.606-.174.912.081.307.271.529.573.673.301.142.633.153.993.033.36-.119.638-.33.832-.632zm1.253-1.611a.4.4 0 0 0 .047-.353.38.38 0 0 0-.231-.248.544.544 0 0 0-.379.008.53.53 0 0 0-.287.246c-.152.276-.093.477.173.6a.544.544 0 0 0 .387-.007.532.532 0 0 0 .293-.246h-.003zm2.318 1.424c-.399.906-1.101 1.572-2.105 1.999-1.004.426-1.999.479-2.984.159-.95-.301-1.605-.863-1.965-1.685-.359-.822-.331-1.656.086-2.499.417-.825 1.089-1.442 2.018-1.852.928-.409 1.862-.492 2.805-.253.986.258 1.688.788 2.111 1.593.424.804.433 1.65.034 2.538zm4.157-2.13c-.081-.853-.477-1.607-1.186-2.266-.712-.656-1.639-1.14-2.778-1.451-1.143-.31-2.362-.403-3.657-.279-1.981.204-3.622.831-4.922 1.886-1.301 1.052-1.89 2.226-1.766 3.524.081.853.477 1.606 1.186 2.264.711.657 1.637 1.142 2.778 1.451 1.142.311 2.361.405 3.657.279 1.982-.202 3.621-.83 4.922-1.885 1.3-1.053 1.89-2.227 1.766-3.523zm4.103.053c0 .604-.163 1.224-.492 1.857-.329.637-.813 1.244-1.453 1.825a11.132 11.132 0 0 1-2.244 1.565c-.858.463-1.861.831-3.012 1.105a15.376 15.376 0 0 1-3.603.414c-1.253 0-2.475-.148-3.664-.447-1.188-.297-2.258-.709-3.204-1.237-.946-.529-1.709-1.198-2.285-2.012C.288 14.831 0 13.945 0 12.986c0-1.022.308-2.109.926-3.264.616-1.154 1.494-2.299 2.631-3.437 1.5-1.5 3.018-2.55 4.549-3.144 1.532-.595 2.626-.563 3.284.093.578.568.667 1.497.266 2.784-.035.125-.04.213-.013.269.027.053.072.083.133.091s.127.006.193-.007c.066-.013.126-.028.18-.046l.08-.026c1.235-.523 2.328-.786 3.277-.786.951 0 1.63.271 2.04.813.399.56.399 1.35 0 2.372a1.55 1.55 0 0 1-.061.266c-.023.063-.003.118.061.167a.718.718 0 0 0 .158.1c.045.018.119.045.229.08.505.16.962.369 1.37.626a3.51 3.51 0 0 1 1.065 1.086c.304.464.457.981.455 1.549zm-.987-8.314c.374.418.617.899.728 1.445.11.546.082 1.068-.087 1.566a.783.783 0 0 1-.394.453.774.774 0 0 1-.593.053.77.77 0 0 1-.451-.393.766.766 0 0 1-.056-.593c.179-.56.072-1.052-.319-1.479-.392-.426-.866-.581-1.425-.466a.791.791 0 0 1-.601-.106.695.695 0 0 1-.333-.493.778.778 0 0 1 .107-.593.731.731 0 0 1 .492-.338 3.042 3.042 0 0 1 1.586.073c.522.163.972.454 1.345.873v-.002zm2.413-2.171a6.154 6.154 0 0 1 1.498 2.964c.229 1.124.169 2.196-.179 3.217a.894.894 0 0 1-.453.533.859.859 0 0 1-.691.053.891.891 0 0 1-.533-.453.88.88 0 0 1-.066-.69 4.35 4.35 0 0 0 .133-2.293 4.359 4.359 0 0 0-1.065-2.104 4.338 4.338 0 0 0-1.972-1.272 4.57 4.57 0 0 0-2.305-.113.887.887 0 0 1-.693-.126.894.894 0 0 1-.399-.58.87.87 0 0 1 .126-.687.903.903 0 0 1 .58-.393 6.374 6.374 0 0 1 3.251.153 6.07 6.07 0 0 1 2.768 1.791z"/></symbol><symbol id="icon-youku" viewBox="0 0 23.655 23.635"><g><path d="M11.248.014a11.792 11.792 0 0 0-7.906 3.575 11.767 11.767 0 0 0-3.244 9.74c.402 3.151 2.059 5.993 4.627 7.938 2.855 2.161 6.623 2.899 10.118 1.981a11.835 11.835 0 0 0 6.07-3.869A11.806 11.806 0 0 0 22.462 6.64a11.298 11.298 0 0 0-2.278-3.176c-1-.998-1.953-1.677-3.201-2.282a10.676 10.676 0 0 0-1.417-.579 11.998 11.998 0 0 0-4.318-.589zm1.658 3.679c.9.129 1.694.368 2.467.741a8.09 8.09 0 0 1 2.597 1.953c1.125 1.28 1.781 2.738 2.009 4.454.058.44.058 1.518 0 1.954a8.041 8.041 0 0 1-.787 2.634c-.597 1.209-1.382 2.151-2.483 2.977-2.437 1.827-5.792 2.124-8.527.756a7.92 7.92 0 0 1-2.172-1.57 8.178 8.178 0 0 1-.697-10.747 8.254 8.254 0 0 1 5.629-3.173c.397-.048 1.585-.034 1.964.021z"/><path d="M8.664 6.791a.39.39 0 0 0-.201.182c-.023.05-.051.242-.075.515-.195 2.274-.222 5.031-.073 7.542.07 1.171.104 1.519.159 1.618.063.11.201.192.324.192.241 0 2.892-1.303 4.611-2.266 1.211-.679 2.846-1.701 3.817-2.39.189-.135.25-.229.25-.392 0-.158-.061-.232-.39-.486-2.218-1.702-4.798-3.156-7.659-4.318-.514-.209-.642-.242-.763-.197z"/></g></symbol><symbol id="icon-youtube" viewBox="0 0 23.829 17.023"><path d="M17.021 8.51c0-.328-.134-.567-.399-.718L9.813 3.537c-.274-.178-.563-.186-.864-.027a.79.79 0 0 0-.438.745v8.51c0 .337.146.586.438.745a.914.914 0 0 0 .412.106.746.746 0 0 0 .451-.134l6.808-4.255c.268-.15.401-.39.401-.717zm6.808 0c0 .851-.005 1.516-.014 1.994-.01.479-.046 1.084-.113 1.815a14.86 14.86 0 0 1-.298 1.964 3.137 3.137 0 0 1-.918 1.635c-.471.442-1.021.7-1.649.77-1.968.223-4.941.335-8.922.335-3.979 0-6.955-.112-8.923-.335a2.827 2.827 0 0 1-1.655-.77 3.102 3.102 0 0 1-.924-1.635c-.123-.577-.219-1.232-.286-1.964s-.104-1.336-.113-1.815C.005 10.026 0 9.361 0 8.51s.005-1.516.014-1.995a26.37 26.37 0 0 1 .112-1.814C.192 3.97.293 3.316.427 2.74a3.103 3.103 0 0 1 .917-1.636A2.787 2.787 0 0 1 2.992.333C4.96.11 7.935 0 11.915 0c3.981 0 6.955.11 8.922.333a2.828 2.828 0 0 1 1.656.771c.473.442.78.987.924 1.636.124.577.219 1.23.285 1.961.067.731.104 1.336.113 1.815.009.478.014 1.143.014 1.994z"/></symbol></svg>